<svg width="24" height="24" viewBox="0 0 24 24" fill="none" xmlns="http://www.w3.org/2000/svg">
<path d="M4.91667 19.0833C2.97222 17.1389 2 14.7778 2 12C2 9.22222 2.97222 6.86111 4.91667 4.91667C6.86111 2.97222 9.22222 2 12 2C14.7778 2 17.1389 2.97222 19.0833 4.91667C21.0278 6.86111 22 9.22222 22 12C22 14.7778 21.0278 17.1389 19.0833 19.0833C17.1389 21.0278 14.7778 22 12 22C9.22222 22 6.86111 21.0278 4.91667 19.0833ZM17.2 17.2C18.6222 15.7778 19.3333 14.0444 19.3333 12C19.3333 9.95556 18.6222 8.22222 17.2 6.8C15.7778 5.37778 14.0444 4.66667 12 4.66667C9.95556 4.66667 8.22222 5.37778 6.8 6.8C5.37778 8.22222 4.66667 9.95556 4.66667 12C4.66667 14.0444 5.37778 15.7778 6.8 17.2C8.22222 18.6222 9.95556 19.3333 12 19.3333C14.0444 19.3333 15.7778 18.6222 17.2 17.2ZM14.6667 16.6667L16.5333 14.8L13.3333 11.5667V6.66667H10.6667V12.6667L14.6667 16.6667Z" fill="#1D1B20"/>
</svg>
