<svg xmlns="http://www.w3.org/2000/svg" viewBox="0 0 24 24" role="img" aria-hidden="true">
  <path fill="#ffffff" d="M12 .5C5.649.5.5 5.649.5 12c0 5.083 3.292 9.395 7.861 10.917.575.104.785-.25.785-.555 0-.274-.01-1-.015-1.962-3.198.695-3.873-1.541-3.873-1.541-.523-1.329-1.277-1.683-1.277-1.683-1.044-.714.079-.699.079-.699 1.154.081 1.761 1.185 1.761 1.185 1.026 1.759 2.692 1.251 3.349.957.104-.743.401-1.251.729-1.539-2.553-.291-5.238-1.277-5.238-5.683 0-1.255.449-2.281 1.184-3.085-.119-.29-.513-1.46.112-3.045 0 0 .966-.309 3.164 1.178A10.98 10.98 0 0 1 12 6.07c.975.004 1.958.132 2.875.387 2.196-1.487 3.16-1.178 3.16-1.178.627 1.585.233 2.755.114 3.045.737.804 1.182 1.83 1.182 3.085 0 4.417-2.689 5.389-5.25 5.675.412.355.779 1.053.779 2.123 0 1.533-.014 2.769-.014 3.146 0 .308.207.665.79.553C20.211 21.391 23.5 17.081 23.5 12 23.5 5.649 18.351.5 12 .5Z"/>
</svg>
