<svg width="24" height="48" viewBox="0 0 24 48" fill="none" xmlns="http://www.w3.org/2000/svg">
<path d="M13.5845 41.7447L22.3941 32.9351C23.202 32.1273 23.202 30.8056 22.3941 29.9986L21.6588 29.2624C20.8528 28.4555 19.5302 28.4555 18.7232 29.2624L12 35.9856L5.27679 29.2624C4.46983 28.4555 3.14724 28.4555 2.34119 29.2624L1.60591 29.9986C0.798027 30.8056 0.798027 32.1273 1.60592 32.9351L10.4173 41.7447C10.8502 42.1785 11.4311 42.3715 12.0009 42.3394C12.568 42.3715 13.1498 42.1785 13.5845 41.7447Z" fill="#474747"/>
<path d="M10.4155 6.25529L1.60591 15.0649C0.798026 15.8727 0.798026 17.1944 1.60591 18.0014L2.34119 18.7376C3.14724 19.5445 4.46982 19.5445 5.27679 18.7376L12 12.0144L18.7232 18.7376C19.5302 19.5445 20.8528 19.5445 21.6588 18.7376L22.3941 18.0014C23.202 17.1944 23.202 15.8727 22.3941 15.0649L13.5827 6.25529C13.1498 5.82148 12.5689 5.62847 11.9991 5.66064C11.432 5.62847 10.8502 5.82148 10.4155 6.25529Z" fill="#474747"/>
</svg>
