<svg width="16" height="16" viewBox="0 0 16 16" fill="none" xmlns="http://www.w3.org/2000/svg">
<g clip-path="url(#clip0_1173_413)">
<path d="M2.87328 6.37203L4.42965 7.03049C4.61588 6.65803 4.80876 6.29887 5.00829 5.95301C5.20783 5.60715 5.42731 5.26129 5.66675 4.91543L4.54937 4.69595L2.87328 6.37203ZM5.70666 8.02816L7.98134 10.2829C8.54004 10.0701 9.13864 9.74415 9.77715 9.30517C10.4157 8.8662 11.0143 8.36736 11.5729 7.80867C12.5041 6.87751 13.2324 5.84326 13.7578 4.70592C14.2833 3.56858 14.5127 2.52103 14.4462 1.56327C13.4885 1.49676 12.4376 1.72622 11.2936 2.25166C10.1496 2.7771 9.11203 3.5054 8.18088 4.43655C7.62218 4.99525 7.12335 5.59385 6.68438 6.23235C6.2454 6.87086 5.9195 7.46946 5.70666 8.02816ZM9.25836 6.73119C8.95241 6.42524 8.79943 6.04945 8.79943 5.60382C8.79943 5.1582 8.95241 4.78241 9.25836 4.47646C9.56431 4.17051 9.94343 4.01753 10.3957 4.01753C10.848 4.01753 11.2271 4.17051 11.533 4.47646C11.839 4.78241 11.992 5.1582 11.992 5.60382C11.992 6.04945 11.839 6.42524 11.533 6.73119C11.2271 7.03714 10.848 7.19012 10.3957 7.19012C9.94343 7.19012 9.56431 7.03714 9.25836 6.73119ZM9.63747 13.1362L11.3136 11.4601L11.0941 10.3427C10.7482 10.5822 10.4024 10.7983 10.0565 10.9912C9.71064 11.1841 9.35147 11.3737 8.97901 11.5599L9.63747 13.1362ZM15.8829 0.106674C16.1356 1.71624 15.9793 3.28258 15.414 4.80569C14.8486 6.3288 13.8742 7.78207 12.4908 9.1655L12.8899 11.1409C12.9431 11.4069 12.9298 11.6663 12.85 11.9191C12.7702 12.1718 12.6371 12.3913 12.4509 12.5775L9.09873 15.9297L7.42265 11.9989L4.01063 8.58685L0.0798134 6.91077L3.41202 3.5586C3.59826 3.37237 3.82107 3.23935 4.08046 3.15954C4.33986 3.07972 4.60258 3.06642 4.86862 3.11963L6.844 3.5187C8.22744 2.13527 9.67738 1.15755 11.1938 0.585554C12.7103 0.0135581 14.2733 -0.146069 15.8829 0.106674ZM1.4965 11.1209C1.96208 10.6553 2.53075 10.4192 3.20251 10.4126C3.87428 10.4059 4.44295 10.6354 4.90853 11.101C5.3741 11.5666 5.60357 12.1352 5.59692 12.807C5.59027 13.4787 5.35415 14.0474 4.88857 14.513C4.55602 14.8456 4.00065 15.1316 3.22247 15.371C2.44429 15.6104 1.37013 15.8233 0 16.0095C0.186231 14.6394 0.399067 13.5652 0.638508 12.787C0.877948 12.0089 1.16395 11.4535 1.4965 11.1209ZM2.63384 12.2383C2.50082 12.3713 2.3678 12.6141 2.23478 12.9666C2.10175 13.3191 2.00864 13.675 1.95543 14.0341C2.31459 13.9809 2.67042 13.8911 3.02293 13.7647C3.37544 13.6384 3.61821 13.5087 3.75123 13.3757C3.91086 13.216 3.99732 13.0231 4.01063 12.797C4.02393 12.5709 3.95077 12.378 3.79114 12.2184C3.63151 12.0587 3.43863 11.9822 3.21249 11.9889C2.98635 11.9956 2.79347 12.0787 2.63384 12.2383Z" fill="#1C274C"/>
</g>
<defs>
<clipPath id="clip0_1173_413">
<rect width="16" height="16" fill="white"/>
</clipPath>
</defs>
</svg>
